<svg width="30" height="33" viewBox="0 0 30 33" fill="none" xmlns="http://www.w3.org/2000/svg">
<mask id="mask0_1_2523" style="mask-type:alpha" maskUnits="userSpaceOnUse" x="0" y="0" width="30" height="33">
<path d="M12.0589 0.946208C13.8053 -0.0620651 15.9569 -0.0620665 17.7033 0.946207L26.94 6.27901C28.6864 7.28728 29.7622 9.15065 29.7622 11.1672V21.8328C29.7622 23.8494 28.6864 25.7127 26.94 26.721L17.7033 32.0538C15.9569 33.0621 13.8053 33.0621 12.0589 32.0538L2.8222 26.721C1.07582 25.7127 0 23.8494 0 21.8328V11.1672C0 9.15065 1.07582 7.28729 2.8222 6.27901L12.0589 0.946208Z" fill="#C4C4C4"/>
</mask>
<g mask="url(#mask0_1_2523)">
<path d="M14.8768 -0.964027L31.1887 8.45361L22.9338 12.8984L19.5241 11.0385L16.4243 11.3485L8.67486 8.55869L6.815 11.0385L5.88507 12.2784L4.02521 11.0385L-1.43499 8.45361L14.8768 -0.964027Z" fill="url(#paint0_linear_1_2523)"/>
<path d="M-0.12854 8.58696L6.19935 11.6556L9.91908 20.6449L9.91908 20.9549L11.159 22.5048L16.7386 26.8444L14.8806 34.5835L-0.12854 25.918L-0.12854 8.58696Z" fill="url(#paint1_linear_1_2523)"/>
<path d="M19.8341 20.9544L23.8638 12.275L29.886 8.58882L29.886 25.9199L14.8769 34.5854L14.5645 26.844L19.8341 20.9544Z" fill="url(#paint2_linear_1_2523)"/>
<path d="M14.8762 6.08274C12.3114 6.08274 9.97404 7.05622 8.21317 8.65382L9.64274 20.9615C10.0337 21.142 12.2758 21.8916 12.7064 21.8916H15.8062C16.354 21.8916 20.1459 20.7238 20.1459 21.2716L19.8359 19.9696C19.8359 20.5175 19.3918 20.9615 18.844 20.9615H10.9085C10.3607 20.9615 9.91661 20.5175 9.91661 19.9696V15.1676C9.91661 14.737 9.82317 14.3116 9.64274 13.9206L8.21317 8.65382C6.61557 10.4146 4.95697 13.4372 4.95697 16.002C4.95697 21.4803 9.39793 25.9213 14.8762 25.9213C20.3546 25.9213 24.7955 21.4803 24.7955 16.002C24.7955 10.5237 20.3546 6.08274 14.8762 6.08274Z" fill="url(#paint3_linear_1_2523)"/>
<path d="M13.0393 10.2229C13.2582 10.1384 13.4926 10.1052 13.7245 10.1259C13.9565 10.1466 14.1799 10.2205 14.378 10.3422C14.5761 10.4639 14.7436 10.6301 14.8678 10.8282C14.992 11.0264 15.0697 11.2512 15.0949 11.4858C15.275 13.1757 14.8955 14.8867 14.0159 16.3504C13.1364 17.814 11.8065 18.9474 10.2351 19.5727L9.12304 16.6973C10.0617 16.3234 10.8568 15.6474 11.3845 14.7744C11.9123 13.9014 12.1433 12.8804 12.0414 11.8701C12.0043 11.5251 12.0821 11.1758 12.2623 10.8774C12.4426 10.579 12.7151 10.3486 13.0366 10.2228L13.0393 10.2229Z" fill="#9C5AFF"/>
<path d="M13.0265 10.2276C12.6466 10.3789 12.3394 10.6761 12.1723 11.0538C12.0052 11.4315 11.9919 11.8587 12.1354 12.2416L15.3854 20.9085C15.5291 21.2913 15.8177 21.5984 16.1879 21.7621C16.558 21.9259 16.9794 21.933 17.3593 21.7819C17.5475 21.707 17.7198 21.5956 17.8664 21.4538C18.0131 21.3121 18.1311 21.1429 18.2139 20.9558C18.2967 20.7688 18.3425 20.5676 18.3488 20.3637C18.355 20.1599 18.3216 19.9574 18.2504 19.7678L15.0004 11.101C14.9294 10.9113 14.822 10.7383 14.6843 10.5918C14.5466 10.4452 14.3814 10.328 14.1981 10.2469C14.0148 10.1658 13.817 10.1224 13.6159 10.119C13.4149 10.1157 13.2146 10.1526 13.0265 10.2276Z" fill="#9C5AFF"/>
<path d="M17.345 21.7842C17.1261 21.8688 16.8918 21.902 16.6599 21.8814C16.428 21.8608 16.2046 21.7868 16.0065 21.6652C15.8084 21.5436 15.6409 21.3774 15.5167 21.1794C15.3925 20.9813 15.3148 20.7565 15.2896 20.522C15.1096 18.8321 15.4892 17.121 16.3687 15.6573C17.2482 14.1936 18.5779 13.0601 20.1491 12.4345L21.2613 15.3109C20.3226 15.6848 19.5275 16.3608 18.9998 17.2338C18.472 18.1068 18.241 19.1278 18.3429 20.1381C18.3795 20.4832 18.3011 20.8325 18.1204 21.1307C17.9396 21.4289 17.6667 21.6589 17.345 21.7842Z" fill="#9C5AFF"/>
</g>
<defs>
<linearGradient id="paint0_linear_1_2523" x1="14.5644" y1="0.499283" x2="14.2819" y2="11.8216" gradientUnits="userSpaceOnUse">
<stop stop-color="#4E00D3"/>
<stop offset="1" stop-color="#7A36F0"/>
</linearGradient>
<linearGradient id="paint1_linear_1_2523" x1="14.8787" y1="23.4347" x2="5.90309" y2="12.673" gradientUnits="userSpaceOnUse">
<stop stop-color="#5508D8"/>
<stop offset="1" stop-color="#7935EF"/>
</linearGradient>
<linearGradient id="paint2_linear_1_2523" x1="14.8744" y1="24.6741" x2="23.4474" y2="13.215" gradientUnits="userSpaceOnUse">
<stop stop-color="#5205D6"/>
<stop offset="1" stop-color="#7A35F0"/>
</linearGradient>
<linearGradient id="paint3_linear_1_2523" x1="14.8762" y1="6.08274" x2="14.8762" y2="25.9213" gradientUnits="userSpaceOnUse">
<stop stop-color="#7935EF"/>
<stop offset="1" stop-color="#6117E0"/>
</linearGradient>
</defs>
</svg>
